<mxfile host="app.diagrams.net" agent="Mozilla/5.0 (Windows NT 10.0; Win64; x64) AppleWebKit/537.36 (KHTML, like Gecko) Chrome/138.0.0.0 Safari/537.36" version="28.0.7">
  <diagram name="Página-1" id="BQtqVDnxdv7hZa8ICFK8">
    <mxGraphModel dx="1188" dy="648" grid="1" gridSize="10" guides="1" tooltips="1" connect="1" arrows="1" fold="1" page="1" pageScale="1" pageWidth="827" pageHeight="1169" math="0" shadow="0">
      <root>
        <mxCell id="0" />
        <mxCell id="1" parent="0" />
        <mxCell id="vX3t4Dyej9rQifprjhdi-1" value="Usuário" style="swimlane;fontStyle=0;childLayout=stackLayout;horizontal=1;startSize=30;horizontalStack=0;resizeParent=1;resizeParentMax=0;resizeLast=0;collapsible=1;marginBottom=0;whiteSpace=wrap;html=1;strokeColor=default;swimlaneLine=1;" vertex="1" parent="1">
          <mxGeometry x="20" y="150" width="204" height="360" as="geometry" />
        </mxCell>
        <mxCell id="vX3t4Dyej9rQifprjhdi-2" value="Nome: String" style="text;strokeColor=none;fillColor=none;align=left;verticalAlign=middle;spacingLeft=4;spacingRight=4;overflow=hidden;points=[[0,0.5],[1,0.5]];portConstraint=eastwest;rotatable=0;whiteSpace=wrap;html=1;" vertex="1" parent="vX3t4Dyej9rQifprjhdi-1">
          <mxGeometry y="30" width="204" height="30" as="geometry" />
        </mxCell>
        <mxCell id="vX3t4Dyej9rQifprjhdi-3" value="Id: Int" style="text;strokeColor=none;fillColor=none;align=left;verticalAlign=middle;spacingLeft=4;spacingRight=4;overflow=hidden;points=[[0,0.5],[1,0.5]];portConstraint=eastwest;rotatable=0;whiteSpace=wrap;html=1;" vertex="1" parent="vX3t4Dyej9rQifprjhdi-1">
          <mxGeometry y="60" width="204" height="30" as="geometry" />
        </mxCell>
        <mxCell id="vX3t4Dyej9rQifprjhdi-9" value="Email: String" style="text;strokeColor=none;fillColor=none;align=left;verticalAlign=middle;spacingLeft=4;spacingRight=4;overflow=hidden;points=[[0,0.5],[1,0.5]];portConstraint=eastwest;rotatable=0;whiteSpace=wrap;html=1;" vertex="1" parent="vX3t4Dyej9rQifprjhdi-1">
          <mxGeometry y="90" width="204" height="30" as="geometry" />
        </mxCell>
        <mxCell id="vX3t4Dyej9rQifprjhdi-10" value="Senha: String" style="text;strokeColor=none;fillColor=none;align=left;verticalAlign=middle;spacingLeft=4;spacingRight=4;overflow=hidden;points=[[0,0.5],[1,0.5]];portConstraint=eastwest;rotatable=0;whiteSpace=wrap;html=1;" vertex="1" parent="vX3t4Dyej9rQifprjhdi-1">
          <mxGeometry y="120" width="204" height="30" as="geometry" />
        </mxCell>
        <mxCell id="vX3t4Dyej9rQifprjhdi-4" value="Curso: Int" style="text;strokeColor=none;fillColor=none;align=left;verticalAlign=middle;spacingLeft=4;spacingRight=4;overflow=hidden;points=[[0,0.5],[1,0.5]];portConstraint=eastwest;rotatable=0;whiteSpace=wrap;html=1;" vertex="1" parent="vX3t4Dyej9rQifprjhdi-1">
          <mxGeometry y="150" width="204" height="30" as="geometry" />
        </mxCell>
        <mxCell id="vX3t4Dyej9rQifprjhdi-22" style="edgeStyle=orthogonalEdgeStyle;rounded=0;orthogonalLoop=1;jettySize=auto;html=1;exitX=0.5;exitY=1;exitDx=0;exitDy=0;" edge="1" parent="vX3t4Dyej9rQifprjhdi-1">
          <mxGeometry relative="1" as="geometry">
            <mxPoint x="102" y="300" as="sourcePoint" />
            <mxPoint x="102" y="300" as="targetPoint" />
          </mxGeometry>
        </mxCell>
        <mxCell id="vX3t4Dyej9rQifprjhdi-51" value="Métodos" style="swimlane;fontStyle=0;childLayout=stackLayout;horizontal=1;startSize=30;horizontalStack=0;resizeParent=1;resizeParentMax=0;resizeLast=0;collapsible=1;marginBottom=0;whiteSpace=wrap;html=1;strokeColor=default;swimlaneLine=1;" vertex="1" parent="vX3t4Dyej9rQifprjhdi-1">
          <mxGeometry y="180" width="204" height="180" as="geometry" />
        </mxCell>
        <mxCell id="vX3t4Dyej9rQifprjhdi-57" style="edgeStyle=orthogonalEdgeStyle;rounded=0;orthogonalLoop=1;jettySize=auto;html=1;exitX=0.5;exitY=1;exitDx=0;exitDy=0;" edge="1" parent="vX3t4Dyej9rQifprjhdi-51">
          <mxGeometry relative="1" as="geometry">
            <mxPoint x="102" y="300" as="sourcePoint" />
            <mxPoint x="102" y="300" as="targetPoint" />
          </mxGeometry>
        </mxCell>
        <mxCell id="vX3t4Dyej9rQifprjhdi-69" value="cadastrarUsuario()" style="text;strokeColor=none;fillColor=none;align=left;verticalAlign=middle;spacingLeft=4;spacingRight=4;overflow=hidden;points=[[0,0.5],[1,0.5]];portConstraint=eastwest;rotatable=0;whiteSpace=wrap;html=1;" vertex="1" parent="vX3t4Dyej9rQifprjhdi-51">
          <mxGeometry y="30" width="204" height="30" as="geometry" />
        </mxCell>
        <mxCell id="vX3t4Dyej9rQifprjhdi-70" value="login(email, senha)" style="text;strokeColor=none;fillColor=none;align=left;verticalAlign=middle;spacingLeft=4;spacingRight=4;overflow=hidden;points=[[0,0.5],[1,0.5]];portConstraint=eastwest;rotatable=0;whiteSpace=wrap;html=1;" vertex="1" parent="vX3t4Dyej9rQifprjhdi-51">
          <mxGeometry y="60" width="204" height="30" as="geometry" />
        </mxCell>
        <mxCell id="vX3t4Dyej9rQifprjhdi-73" value="atualizarUsuario()" style="text;strokeColor=none;fillColor=none;align=left;verticalAlign=middle;spacingLeft=4;spacingRight=4;overflow=hidden;points=[[0,0.5],[1,0.5]];portConstraint=eastwest;rotatable=0;whiteSpace=wrap;html=1;" vertex="1" parent="vX3t4Dyej9rQifprjhdi-51">
          <mxGeometry y="90" width="204" height="30" as="geometry" />
        </mxCell>
        <mxCell id="vX3t4Dyej9rQifprjhdi-72" value="excluirUsuario()" style="text;strokeColor=none;fillColor=none;align=left;verticalAlign=middle;spacingLeft=4;spacingRight=4;overflow=hidden;points=[[0,0.5],[1,0.5]];portConstraint=eastwest;rotatable=0;whiteSpace=wrap;html=1;" vertex="1" parent="vX3t4Dyej9rQifprjhdi-51">
          <mxGeometry y="120" width="204" height="30" as="geometry" />
        </mxCell>
        <mxCell id="vX3t4Dyej9rQifprjhdi-71" value="escolherCurso(idCurso)" style="text;strokeColor=none;fillColor=none;align=left;verticalAlign=middle;spacingLeft=4;spacingRight=4;overflow=hidden;points=[[0,0.5],[1,0.5]];portConstraint=eastwest;rotatable=0;whiteSpace=wrap;html=1;" vertex="1" parent="vX3t4Dyej9rQifprjhdi-51">
          <mxGeometry y="150" width="204" height="30" as="geometry" />
        </mxCell>
        <mxCell id="vX3t4Dyej9rQifprjhdi-5" value="Cursos" style="swimlane;fontStyle=0;childLayout=stackLayout;horizontal=1;startSize=30;horizontalStack=0;resizeParent=1;resizeParentMax=0;resizeLast=0;collapsible=1;marginBottom=0;whiteSpace=wrap;html=1;" vertex="1" parent="1">
          <mxGeometry x="760" y="105" width="160" height="300" as="geometry" />
        </mxCell>
        <mxCell id="vX3t4Dyej9rQifprjhdi-6" value="NomeCurso: String&lt;span style=&quot;white-space: pre;&quot;&gt;&#x9;&lt;/span&gt;&lt;span style=&quot;white-space: pre;&quot;&gt;&#x9;&lt;/span&gt;" style="text;strokeColor=none;fillColor=none;align=left;verticalAlign=middle;spacingLeft=4;spacingRight=4;overflow=hidden;points=[[0,0.5],[1,0.5]];portConstraint=eastwest;rotatable=0;whiteSpace=wrap;html=1;" vertex="1" parent="vX3t4Dyej9rQifprjhdi-5">
          <mxGeometry y="30" width="160" height="30" as="geometry" />
        </mxCell>
        <mxCell id="vX3t4Dyej9rQifprjhdi-7" value="IdCurso: Int" style="text;strokeColor=none;fillColor=none;align=left;verticalAlign=middle;spacingLeft=4;spacingRight=4;overflow=hidden;points=[[0,0.5],[1,0.5]];portConstraint=eastwest;rotatable=0;whiteSpace=wrap;html=1;" vertex="1" parent="vX3t4Dyej9rQifprjhdi-5">
          <mxGeometry y="60" width="160" height="30" as="geometry" />
        </mxCell>
        <mxCell id="vX3t4Dyej9rQifprjhdi-43" value="Conteúdo: String&amp;nbsp;" style="text;strokeColor=none;fillColor=none;align=left;verticalAlign=middle;spacingLeft=4;spacingRight=4;overflow=hidden;points=[[0,0.5],[1,0.5]];portConstraint=eastwest;rotatable=0;whiteSpace=wrap;html=1;" vertex="1" parent="vX3t4Dyej9rQifprjhdi-5">
          <mxGeometry y="90" width="160" height="30" as="geometry" />
        </mxCell>
        <mxCell id="vX3t4Dyej9rQifprjhdi-65" value="Métodos" style="swimlane;fontStyle=0;childLayout=stackLayout;horizontal=1;startSize=30;horizontalStack=0;resizeParent=1;resizeParentMax=0;resizeLast=0;collapsible=1;marginBottom=0;whiteSpace=wrap;html=1;strokeColor=default;swimlaneLine=1;" vertex="1" parent="vX3t4Dyej9rQifprjhdi-5">
          <mxGeometry y="120" width="160" height="180" as="geometry" />
        </mxCell>
        <mxCell id="vX3t4Dyej9rQifprjhdi-66" style="edgeStyle=orthogonalEdgeStyle;rounded=0;orthogonalLoop=1;jettySize=auto;html=1;exitX=0.5;exitY=1;exitDx=0;exitDy=0;" edge="1" parent="vX3t4Dyej9rQifprjhdi-65">
          <mxGeometry relative="1" as="geometry">
            <mxPoint x="102" y="300" as="sourcePoint" />
            <mxPoint x="102" y="300" as="targetPoint" />
          </mxGeometry>
        </mxCell>
        <mxCell id="vX3t4Dyej9rQifprjhdi-81" value="cadastrarCurso()" style="text;strokeColor=none;fillColor=none;align=left;verticalAlign=middle;spacingLeft=4;spacingRight=4;overflow=hidden;points=[[0,0.5],[1,0.5]];portConstraint=eastwest;rotatable=0;whiteSpace=wrap;html=1;" vertex="1" parent="vX3t4Dyej9rQifprjhdi-65">
          <mxGeometry y="30" width="160" height="30" as="geometry" />
        </mxCell>
        <mxCell id="vX3t4Dyej9rQifprjhdi-80" value="atualizarCurso()" style="text;strokeColor=none;fillColor=none;align=left;verticalAlign=middle;spacingLeft=4;spacingRight=4;overflow=hidden;points=[[0,0.5],[1,0.5]];portConstraint=eastwest;rotatable=0;whiteSpace=wrap;html=1;" vertex="1" parent="vX3t4Dyej9rQifprjhdi-65">
          <mxGeometry y="60" width="160" height="30" as="geometry" />
        </mxCell>
        <mxCell id="vX3t4Dyej9rQifprjhdi-79" value="listarCursos()" style="text;strokeColor=none;fillColor=none;align=left;verticalAlign=middle;spacingLeft=4;spacingRight=4;overflow=hidden;points=[[0,0.5],[1,0.5]];portConstraint=eastwest;rotatable=0;whiteSpace=wrap;html=1;" vertex="1" parent="vX3t4Dyej9rQifprjhdi-65">
          <mxGeometry y="90" width="160" height="30" as="geometry" />
        </mxCell>
        <mxCell id="vX3t4Dyej9rQifprjhdi-78" value="&lt;code data-end=&quot;965&quot; data-start=&quot;942&quot;&gt;removerCurso(idCurso)&lt;/code&gt;" style="text;strokeColor=none;fillColor=none;align=left;verticalAlign=middle;spacingLeft=4;spacingRight=4;overflow=hidden;points=[[0,0.5],[1,0.5]];portConstraint=eastwest;rotatable=0;whiteSpace=wrap;html=1;" vertex="1" parent="vX3t4Dyej9rQifprjhdi-65">
          <mxGeometry y="120" width="160" height="30" as="geometry" />
        </mxCell>
        <mxCell id="vX3t4Dyej9rQifprjhdi-77" value="exibirConteudo(idCurso)" style="text;strokeColor=none;fillColor=none;align=left;verticalAlign=middle;spacingLeft=4;spacingRight=4;overflow=hidden;points=[[0,0.5],[1,0.5]];portConstraint=eastwest;rotatable=0;whiteSpace=wrap;html=1;" vertex="1" parent="vX3t4Dyej9rQifprjhdi-65">
          <mxGeometry y="150" width="160" height="30" as="geometry" />
        </mxCell>
        <mxCell id="vX3t4Dyej9rQifprjhdi-42" style="edgeStyle=orthogonalEdgeStyle;rounded=0;orthogonalLoop=1;jettySize=auto;html=1;" edge="1" parent="1" source="vX3t4Dyej9rQifprjhdi-34" target="vX3t4Dyej9rQifprjhdi-5">
          <mxGeometry relative="1" as="geometry" />
        </mxCell>
        <mxCell id="vX3t4Dyej9rQifprjhdi-34" value="Escolha" style="swimlane;fontStyle=0;childLayout=stackLayout;horizontal=1;startSize=30;horizontalStack=0;resizeParent=1;resizeParentMax=0;resizeLast=0;collapsible=1;marginBottom=0;whiteSpace=wrap;html=1;strokeColor=default;swimlaneLine=1;" vertex="1" parent="1">
          <mxGeometry x="360" y="135" width="220" height="240" as="geometry" />
        </mxCell>
        <mxCell id="vX3t4Dyej9rQifprjhdi-35" value="Id: Int" style="text;strokeColor=none;fillColor=none;align=left;verticalAlign=middle;spacingLeft=4;spacingRight=4;overflow=hidden;points=[[0,0.5],[1,0.5]];portConstraint=eastwest;rotatable=0;whiteSpace=wrap;html=1;" vertex="1" parent="vX3t4Dyej9rQifprjhdi-34">
          <mxGeometry y="30" width="220" height="30" as="geometry" />
        </mxCell>
        <mxCell id="vX3t4Dyej9rQifprjhdi-37" value="IdForms: Int" style="text;strokeColor=none;fillColor=none;align=left;verticalAlign=middle;spacingLeft=4;spacingRight=4;overflow=hidden;points=[[0,0.5],[1,0.5]];portConstraint=eastwest;rotatable=0;whiteSpace=wrap;html=1;" vertex="1" parent="vX3t4Dyej9rQifprjhdi-34">
          <mxGeometry y="60" width="220" height="30" as="geometry" />
        </mxCell>
        <mxCell id="vX3t4Dyej9rQifprjhdi-39" value="IdLinguagem: Int" style="text;strokeColor=none;fillColor=none;align=left;verticalAlign=middle;spacingLeft=4;spacingRight=4;overflow=hidden;points=[[0,0.5],[1,0.5]];portConstraint=eastwest;rotatable=0;whiteSpace=wrap;html=1;" vertex="1" parent="vX3t4Dyej9rQifprjhdi-34">
          <mxGeometry y="90" width="220" height="30" as="geometry" />
        </mxCell>
        <mxCell id="vX3t4Dyej9rQifprjhdi-40" style="edgeStyle=orthogonalEdgeStyle;rounded=0;orthogonalLoop=1;jettySize=auto;html=1;exitX=0.5;exitY=1;exitDx=0;exitDy=0;" edge="1" parent="vX3t4Dyej9rQifprjhdi-34">
          <mxGeometry relative="1" as="geometry">
            <mxPoint x="102" y="300" as="sourcePoint" />
            <mxPoint x="102" y="300" as="targetPoint" />
          </mxGeometry>
        </mxCell>
        <mxCell id="vX3t4Dyej9rQifprjhdi-58" value="Métodos" style="swimlane;fontStyle=0;childLayout=stackLayout;horizontal=1;startSize=30;horizontalStack=0;resizeParent=1;resizeParentMax=0;resizeLast=0;collapsible=1;marginBottom=0;whiteSpace=wrap;html=1;strokeColor=default;swimlaneLine=1;" vertex="1" parent="vX3t4Dyej9rQifprjhdi-34">
          <mxGeometry y="120" width="220" height="120" as="geometry" />
        </mxCell>
        <mxCell id="vX3t4Dyej9rQifprjhdi-64" style="edgeStyle=orthogonalEdgeStyle;rounded=0;orthogonalLoop=1;jettySize=auto;html=1;exitX=0.5;exitY=1;exitDx=0;exitDy=0;" edge="1" parent="vX3t4Dyej9rQifprjhdi-58">
          <mxGeometry relative="1" as="geometry">
            <mxPoint x="102" y="300" as="sourcePoint" />
            <mxPoint x="102" y="300" as="targetPoint" />
          </mxGeometry>
        </mxCell>
        <mxCell id="vX3t4Dyej9rQifprjhdi-74" value="registrarEscolha(idUsuario, idCurso)" style="text;strokeColor=none;fillColor=none;align=left;verticalAlign=middle;spacingLeft=4;spacingRight=4;overflow=hidden;points=[[0,0.5],[1,0.5]];portConstraint=eastwest;rotatable=0;whiteSpace=wrap;html=1;" vertex="1" parent="vX3t4Dyej9rQifprjhdi-58">
          <mxGeometry y="30" width="220" height="30" as="geometry" />
        </mxCell>
        <mxCell id="vX3t4Dyej9rQifprjhdi-75" value="listarEscolhasPorUsuario(idUsuario)" style="text;strokeColor=none;fillColor=none;align=left;verticalAlign=middle;spacingLeft=4;spacingRight=4;overflow=hidden;points=[[0,0.5],[1,0.5]];portConstraint=eastwest;rotatable=0;whiteSpace=wrap;html=1;" vertex="1" parent="vX3t4Dyej9rQifprjhdi-58">
          <mxGeometry y="60" width="220" height="30" as="geometry" />
        </mxCell>
        <mxCell id="vX3t4Dyej9rQifprjhdi-76" value="removerEscolha(idEscolha)" style="text;strokeColor=none;fillColor=none;align=left;verticalAlign=middle;spacingLeft=4;spacingRight=4;overflow=hidden;points=[[0,0.5],[1,0.5]];portConstraint=eastwest;rotatable=0;whiteSpace=wrap;html=1;" vertex="1" parent="vX3t4Dyej9rQifprjhdi-58">
          <mxGeometry y="90" width="220" height="30" as="geometry" />
        </mxCell>
        <mxCell id="vX3t4Dyej9rQifprjhdi-45" value="&lt;font style=&quot;font-size: 18px;&quot;&gt;1,N&lt;/font&gt;" style="edgeLabel;html=1;align=center;verticalAlign=middle;resizable=0;points=[];" vertex="1" connectable="0" parent="1">
          <mxGeometry x="330" y="230" as="geometry">
            <mxPoint x="4" y="4" as="offset" />
          </mxGeometry>
        </mxCell>
        <mxCell id="vX3t4Dyej9rQifprjhdi-46" style="edgeStyle=orthogonalEdgeStyle;rounded=0;orthogonalLoop=1;jettySize=auto;html=1;" edge="1" parent="1" source="vX3t4Dyej9rQifprjhdi-9" target="vX3t4Dyej9rQifprjhdi-34">
          <mxGeometry relative="1" as="geometry" />
        </mxCell>
        <mxCell id="vX3t4Dyej9rQifprjhdi-47" value="&lt;span style=&quot;font-size: 18px;&quot;&gt;1&lt;/span&gt;" style="edgeLabel;html=1;align=center;verticalAlign=middle;resizable=0;points=[];" vertex="1" connectable="0" parent="1">
          <mxGeometry x="250" y="240" as="geometry">
            <mxPoint x="-3" y="-4" as="offset" />
          </mxGeometry>
        </mxCell>
        <mxCell id="vX3t4Dyej9rQifprjhdi-48" value="&lt;span style=&quot;font-size: 18px;&quot;&gt;1,N&lt;/span&gt;" style="edgeLabel;html=1;align=center;verticalAlign=middle;resizable=0;points=[];" vertex="1" connectable="0" parent="1">
          <mxGeometry x="610" y="240" as="geometry">
            <mxPoint x="-7" y="-6" as="offset" />
          </mxGeometry>
        </mxCell>
        <mxCell id="vX3t4Dyej9rQifprjhdi-49" value="&lt;span style=&quot;font-size: 18px;&quot;&gt;1&lt;/span&gt;" style="edgeLabel;html=1;align=center;verticalAlign=middle;resizable=0;points=[];" vertex="1" connectable="0" parent="1">
          <mxGeometry x="730" y="230" as="geometry">
            <mxPoint x="4" y="4" as="offset" />
          </mxGeometry>
        </mxCell>
      </root>
    </mxGraphModel>
  </diagram>
</mxfile>
